<?xml version="1.0" encoding="UTF-8" standalone="no"?>
<svg
   width="120"
   height="20"
   viewBox="18 52 124 20"
   version="1.1"
   id="svg1"
   xmlns="http://www.w3.org/2000/svg"
   xmlns:svg="http://www.w3.org/2000/svg">
  <g
     id="layer1">
    <g
       id="text4"
       style="font-size:25.3835px;line-height:125%;font-family:Avalon;letter-spacing:0px;word-spacing:0px;stroke-width:0.264583"
       aria-label="FOOTRDC ">
      <path
         d="m 33.079302,59.361401 v 5.127466 h -7.081997 v 6.218958 H 20.895222 V 53.167827 h 12.18408 v 5.15285 h -7.081997 v 1.040724 z m -8.148104,1.09149 V 57.25457 h 7.056613 V 54.233934 H 21.961329 v 15.3824 h 2.969869 V 63.42276 h 7.056613 v -2.969869 z m 21.601338,1.497627 q 0,-0.761505 -0.279218,-1.396093 -0.279219,-0.659971 -0.786889,-1.142257 -0.482286,-0.50767 -1.142257,-0.786889 -0.659971,-0.279218 -1.421476,-0.279218 -0.736122,0 -1.396093,0.279218 -0.659971,0.279219 -1.167641,0.786889 -0.482286,0.482286 -0.761505,1.142257 -0.279218,0.634588 -0.279218,1.396093 0,0.736121 0.279218,1.396092 0.279219,0.659971 0.761505,1.142257 0.50767,0.482287 1.167641,0.761505 0.659971,0.279219 1.396093,0.279219 0.761505,0 1.421476,-0.279219 0.659971,-0.279218 1.142257,-0.761505 0.50767,-0.482286 0.786889,-1.142257 0.279218,-0.659971 0.279218,-1.396092 z m -3.62984,-8.782691 q 1.827612,0 3.426772,0.685354 1.624544,0.685355 2.792185,1.878379 1.193024,1.193025 1.878379,2.792185 0.685354,1.599161 0.685354,3.426773 0,1.802228 -0.685354,3.401388 -0.685355,1.599161 -1.878379,2.792185 -1.167641,1.193025 -2.792185,1.878379 -1.59916,0.685355 -3.426772,0.685355 -1.802229,0 -3.401389,-0.685355 -1.599161,-0.685354 -2.792185,-1.878379 -1.193025,-1.193024 -1.878379,-2.792185 -0.685355,-1.59916 -0.685355,-3.401388 0,-1.827612 0.685355,-3.426773 0.685354,-1.59916 1.878379,-2.792185 1.193024,-1.193024 2.792185,-1.878379 1.59916,-0.685354 3.401389,-0.685354 z m 4.721331,8.782691 q 0,0.964572 -0.380753,1.827611 -0.355369,0.837656 -1.01534,1.472243 -0.634587,0.634588 -1.497626,1.01534 -0.837656,0.355369 -1.827612,0.355369 -0.964573,0 -1.827612,-0.355369 -0.837656,-0.380752 -1.472243,-1.01534 -0.634588,-0.634587 -1.01534,-1.472243 -0.355369,-0.863039 -0.355369,-1.827611 0,-0.989957 0.355369,-1.827612 0.380752,-0.863039 1.01534,-1.497627 0.634587,-0.634587 1.472243,-0.989956 0.863039,-0.380753 1.827612,-0.380753 0.989956,0 1.827612,0.380753 0.863039,0.355369 1.497626,0.989956 0.659971,0.634588 1.01534,1.497627 0.380753,0.837655 0.380753,1.827612 z m -4.721331,-7.691201 q -1.599161,0 -2.995253,0.609204 -1.396093,0.583821 -2.436816,1.649928 -1.040724,1.040723 -1.649928,2.436816 -0.609204,1.396092 -0.609204,2.995253 0,1.59916 0.609204,2.995252 0.609204,1.396093 1.649928,2.436816 1.040723,1.040724 2.436816,1.649928 1.396092,0.58382 2.995253,0.58382 1.59916,0 2.995253,-0.58382 1.396092,-0.609204 2.436816,-1.649928 1.066106,-1.040723 1.649927,-2.436816 0.609204,-1.396092 0.609204,-2.995252 0,-1.599161 -0.609204,-2.995253 -0.583821,-1.396093 -1.649927,-2.436816 -1.040724,-1.066107 -2.436816,-1.649928 -1.396093,-0.609204 -2.995253,-0.609204 z m 22.134363,7.691201 q 0,-0.761505 -0.279218,-1.396093 -0.279219,-0.659971 -0.786889,-1.142257 -0.482286,-0.50767 -1.142257,-0.786889 -0.659971,-0.279218 -1.421476,-0.279218 -0.736121,0 -1.396092,0.279218 -0.659971,0.279219 -1.167641,0.786889 -0.482287,0.482286 -0.761505,1.142257 -0.279219,0.634588 -0.279219,1.396093 0,0.736121 0.279219,1.396092 0.279218,0.659971 0.761505,1.142257 0.50767,0.482287 1.167641,0.761505 0.659971,0.279219 1.396092,0.279219 0.761505,0 1.421476,-0.279219 0.659971,-0.279218 1.142257,-0.761505 0.50767,-0.482286 0.786889,-1.142257 0.279218,-0.659971 0.279218,-1.396092 z m -3.62984,-8.782691 q 1.827612,0 3.426772,0.685354 1.624544,0.685355 2.792185,1.878379 1.193025,1.193025 1.878379,2.792185 0.685355,1.599161 0.685355,3.426773 0,1.802228 -0.685355,3.401388 -0.685354,1.599161 -1.878379,2.792185 -1.167641,1.193025 -2.792185,1.878379 -1.59916,0.685355 -3.426772,0.685355 -1.802228,0 -3.401389,-0.685355 -1.59916,-0.685354 -2.792185,-1.878379 -1.193024,-1.193024 -1.878379,-2.792185 -0.685354,-1.59916 -0.685354,-3.401388 0,-1.827612 0.685354,-3.426773 0.685355,-1.59916 1.878379,-2.792185 1.193025,-1.193024 2.792185,-1.878379 1.599161,-0.685354 3.401389,-0.685354 z m 4.721331,8.782691 q 0,0.964572 -0.380753,1.827611 -0.355369,0.837656 -1.01534,1.472243 -0.634587,0.634588 -1.497626,1.01534 -0.837656,0.355369 -1.827612,0.355369 -0.964573,0 -1.827612,-0.355369 -0.837655,-0.380752 -1.472243,-1.01534 -0.634587,-0.634587 -1.01534,-1.472243 -0.355369,-0.863039 -0.355369,-1.827611 0,-0.989957 0.355369,-1.827612 0.380753,-0.863039 1.01534,-1.497627 0.634588,-0.634587 1.472243,-0.989956 0.863039,-0.380753 1.827612,-0.380753 0.989956,0 1.827612,0.380753 0.863039,0.355369 1.497626,0.989956 0.659971,0.634588 1.01534,1.497627 0.380753,0.837655 0.380753,1.827612 z m -4.721331,-7.691201 q -1.59916,0 -2.995253,0.609204 -1.396092,0.583821 -2.436816,1.649928 -1.040723,1.040723 -1.649927,2.436816 -0.609204,1.396092 -0.609204,2.995253 0,1.59916 0.609204,2.995252 0.609204,1.396093 1.649927,2.436816 1.040724,1.040724 2.436816,1.649928 1.396093,0.58382 2.995253,0.58382 1.59916,0 2.995253,-0.58382 1.396092,-0.609204 2.436816,-1.649928 1.066107,-1.040723 1.649927,-2.436816 0.609204,-1.396092 0.609204,-2.995252 0,-1.599161 -0.609204,-2.995253 -0.58382,-1.396093 -1.649927,-2.436816 -1.040724,-1.066107 -2.436816,-1.649928 -1.396093,-0.609204 -2.995253,-0.609204 z m 21.195215,-1.09149 v 5.15285 h -3.55369 v 12.387148 h -5.15285 V 58.320677 h -3.528307 v -5.15285 z m -11.143356,1.066107 v 3.020636 h 3.528306 v 12.361764 h 2.969869 V 57.25457 h 3.55369 v -3.020636 z"
         id="path1" />
      <path
         style="font-family:'Berlin Sans FB Demi';-inkscape-font-specification:'Berlin Sans FB Demi'"
         d="m 99.049774,70.583882 q 0,0.08676 -0.247886,0.123943 -0.470983,0.07437 -2.367309,0.07437 -1.623651,0 -2.206183,-0.07437 -0.272674,-0.03718 -0.309857,-0.06197 -0.07437,-0.03718 -0.17352,-0.247885 -0.185914,-0.483378 -0.545349,-1.437738 -0.483377,-1.239428 -1.512103,-3.656314 -0.223097,-0.483377 -1.028725,-0.532955 0.371828,0.02479 -1.276612,0.02479 -0.185914,0 -0.185914,0.632109 0,0.842811 0.148731,2.51604 0.161126,1.673228 0.161126,2.51604 0,0.210703 -0.111549,0.247886 -0.17352,0.01239 -0.34704,0.02479 -0.731263,0.04958 -2.280549,0.04958 -1.772383,0 -2.131817,-0.07437 -0.359434,-0.07437 -0.359434,-0.384223 0,-1.363372 0.123943,-4.114903 0.136337,-2.751532 0.136337,-4.127298 0,-5.242783 -0.235492,-8.180229 l -0.01239,-0.17352 q -0.01239,-0.210703 0.384223,-0.285069 0.409012,-0.07437 3.792652,-0.148731 2.292943,-0.04958 3.656314,-0.04958 2.825898,0 4.610675,1.276611 2.020269,1.437738 2.020269,4.152086 0,1.809566 -0.52056,2.887869 -0.52056,1.078303 -1.921115,2.094635 -0.285068,0.198308 -0.285068,0.371828 0,-0.01239 1.512103,3.110966 1.512103,3.12336 1.512103,3.445612 z M 93.844173,59.466207 q 0,-1.512103 -0.991543,-2.094635 -0.768446,-0.446194 -2.404491,-0.446194 -1.177458,0 -1.251823,0.359434 -0.07437,0.421406 -0.07437,2.42928 0,0.285069 0.01239,0.842812 0.01239,0.557743 0.01239,0.830417 0,0.06197 0.396617,0.123943 0.756051,0.111549 1.586468,0.111549 2.714349,0 2.714349,-2.156606 z m 22.780697,2.454068 q 0,3.643921 -2.34252,6.321087 -2.06984,2.392097 -5.81292,2.51604 -0.71887,0.02479 -3.95377,0.02479 -0.60732,0 -1.83436,-0.03718 -1.21464,-0.03718 -1.82196,-0.03718 -0.35943,0 -0.35943,-0.285069 0,-1.363371 0.0991,-4.090114 0.11155,-2.739138 0.11155,-4.102509 0,-1.425343 -0.11155,-4.263635 -0.0991,-2.850686 -0.0991,-4.263635 0,-0.26028 0.35943,-0.309857 0.87999,-0.09915 2.88787,-0.09915 3.81744,0 4.94532,0.111548 2.93745,0.297463 4.59828,1.487315 1.56168,1.115486 2.46646,3.12336 0.8676,1.896326 0.8676,3.9042 z m -4.74701,0 q 0,-2.094634 -1.25182,-3.420823 -1.26422,-1.375766 -3.34646,-1.375766 -1.90872,0 -1.90872,0.508166 0,0.731263 -0.0248,2.206183 -0.0248,1.462526 -0.0248,2.193789 0,0.718869 0.0248,2.169 0.0248,1.437737 0.0248,2.169 0,0.532955 1.98309,0.532955 2.14421,0 3.37124,-1.425343 1.15267,-1.350978 1.15267,-3.557161 z m 21.14465,5.986441 q 0,0.198309 -0.26028,0.52056 -2.28055,2.714349 -6.0608,2.714349 -3.86702,0 -6.27151,-2.639983 -2.34252,-2.553223 -2.34252,-6.445029 0,-3.767864 2.29294,-6.395452 2.3921,-2.751532 6.0856,-2.751532 4.01574,0 6.29629,2.466463 0.24789,0.272674 0.24789,0.483377 0,0.235492 -0.8676,1.747595 -0.85521,1.512103 -1.0783,1.698017 -0.0992,0.09915 -0.24789,0.09915 -0.062,0 -0.61971,-0.495771 -0.6693,-0.594926 -1.3138,-0.929572 -0.97915,-0.495771 -2.03266,-0.495771 -1.82196,0 -2.91266,1.363371 -1.00394,1.264218 -1.00394,3.123361 0,1.883931 1.00394,3.160543 1.0907,1.38816 2.91266,1.38816 1.0783,0 2.04506,-0.470983 0.6321,-0.309857 1.289,-0.8676 0.54535,-0.470983 0.60732,-0.470983 0.12394,0 0.24789,0.136337 0.19831,0.223097 1.0783,1.549286 0.90478,1.375766 0.90478,1.512103 z"
         id="path2" />
    </g>
  </g>
</svg>